<svg xmlns="http://www.w3.org/2000/svg" width="25" height="25" viewBox="0 0 25 25" fill="none">
  <path d="M2.02051 20.2009C2.02051 20.7367 2.23334 21.2505 2.61218 21.6293C2.99102 22.0082 3.50484 22.221 4.0406 22.221H20.2013C20.7371 22.221 21.2509 22.0082 21.6297 21.6293C22.0086 21.2505 22.2214 20.7367 22.2214 20.2009V8.08036L15.1511 13.1306V8.08036L8.08078 13.1306V4.04018C8.08078 3.50442 7.86795 2.99061 7.4891 2.61177C7.11026 2.23293 6.59645 2.0201 6.06069 2.0201H4.0406C3.50484 2.0201 2.99102 2.23293 2.61218 2.61177C2.23334 2.99061 2.02051 3.50442 2.02051 4.04018V20.2009Z" stroke="#CC1931" stroke-width="2.02009" stroke-linecap="round" stroke-linejoin="round"/>
  <path d="M17.1709 18.1808H18.1809" stroke="#CC1931" stroke-width="2.02009" stroke-linecap="round" stroke-linejoin="round"/>
  <path d="M12.1201 18.1808H13.1302" stroke="#CC1931" stroke-width="2.02009" stroke-linecap="round" stroke-linejoin="round"/>
  <path d="M7.07031 18.1808H8.08036" stroke="#CC1931" stroke-width="2.02009" stroke-linecap="round" stroke-linejoin="round"/>
</svg>