<svg xmlns="http://www.w3.org/2000/svg" width="24" height="24" viewBox="0 0 24 24" fill="none">
  <path d="M5.56964 7.88697C5.28389 6.00147 6.61439 4.30497 8.64689 3.68247C9.00777 3.57201 9.39719 3.6034 9.73572 3.77023C10.0742 3.93705 10.3364 4.22675 10.4686 4.58022L11.1204 6.32022C11.2252 6.60011 11.244 6.90493 11.1743 7.19557C11.1047 7.48621 10.9499 7.74943 10.7296 7.95147L8.79089 9.72972C8.69509 9.81743 8.62372 9.92851 8.58375 10.0521C8.54378 10.1757 8.53659 10.3075 8.56289 10.4347L8.58014 10.5127L8.62814 10.7085C8.67089 10.8735 8.73539 11.106 8.82614 11.3835C9.00614 11.9347 9.29339 12.6757 9.72089 13.416C10.1484 14.1562 10.6464 14.7757 11.0334 15.207C11.2351 15.4313 11.4458 15.6475 11.6649 15.855L11.7249 15.9105C11.8219 15.9964 11.9394 16.0557 12.0661 16.0826C12.1928 16.1095 12.3244 16.1032 12.4479 16.0642L14.9574 15.2745C15.2425 15.1848 15.5479 15.1824 15.8344 15.2676C16.1209 15.3527 16.3755 15.5214 16.5654 15.7522L17.7526 17.1937C18.2476 17.7937 18.1891 18.6757 17.6199 19.206C16.0644 20.6557 13.9254 20.9535 12.4374 19.7565C10.6139 18.285 9.0764 16.4909 7.90139 14.4637C6.71775 12.4372 5.92669 10.2065 5.56964 7.88697ZM10.1341 10.533L11.7436 9.05697C12.1841 8.65289 12.4938 8.12645 12.633 7.54517C12.7723 6.96388 12.7347 6.35425 12.5251 5.79447L11.8726 4.05447C11.6064 3.34356 11.0791 2.76094 10.3982 2.42536C9.71733 2.08979 8.93408 2.02652 8.20814 2.24847C5.68439 3.02172 3.65789 5.28447 4.08689 8.11122C4.47199 10.6176 5.32615 13.029 6.60464 15.219C7.87199 17.4051 9.53027 19.3397 11.4969 20.9265C13.7281 22.719 16.7086 22.1077 18.6429 20.304C19.1967 19.7883 19.5327 19.0807 19.5825 18.3257C19.6323 17.5707 19.3919 16.8251 18.9106 16.2412L17.7234 14.7997C17.3435 14.338 16.8343 14.0004 16.2611 13.8302C15.6879 13.6599 15.077 13.6648 14.5066 13.8442L12.4239 14.4997C12.3306 14.4039 12.2394 14.3061 12.1501 14.2065C11.722 13.733 11.3432 13.2171 11.0199 12.6667C10.7047 12.1114 10.4472 11.5254 10.2511 10.9177C10.2095 10.7905 10.1705 10.6625 10.1341 10.5337" fill="white"/>
</svg>