<svg xmlns="http://www.w3.org/2000/svg" width="27" height="27" viewBox="0 0 27 27" fill="none">
  <path d="M4.33086 9.69749C4.16665 8.95783 4.19187 8.18869 4.40416 7.46137C4.61645 6.73405 5.00895 6.07211 5.54526 5.53692C6.08157 5.00174 6.74433 4.61062 7.47209 4.39986C8.19985 4.18909 8.96904 4.16549 9.70836 4.33124C10.1153 3.69483 10.6759 3.17109 11.3384 2.80831C12.001 2.44553 12.7442 2.25537 13.4996 2.25537C14.255 2.25537 14.9982 2.44553 15.6608 2.80831C16.3234 3.17109 16.8839 3.69483 17.2909 4.33124C18.0313 4.16476 18.8018 4.18826 19.5307 4.39954C20.2596 4.61082 20.9233 5.00302 21.4599 5.53966C21.9966 6.0763 22.3888 6.73994 22.6001 7.46886C22.8113 8.19778 22.8348 8.9683 22.6684 9.70874C23.3048 10.1157 23.8285 10.6762 24.1913 11.3388C24.5541 12.0014 24.7442 12.7446 24.7442 13.5C24.7442 14.2554 24.5541 14.9986 24.1913 15.6612C23.8285 16.3237 23.3048 16.8843 22.6684 17.2912C22.8341 18.0305 22.8105 18.7997 22.5997 19.5275C22.389 20.2553 21.9979 20.918 21.4627 21.4543C20.9275 21.9906 20.2655 22.3831 19.5382 22.5954C18.8109 22.8077 18.0418 22.8329 17.3021 22.6687C16.8957 23.3076 16.3347 23.8336 15.671 24.198C15.0073 24.5624 14.2624 24.7534 13.5052 24.7534C12.7481 24.7534 12.0032 24.5624 11.3395 24.198C10.6758 23.8336 10.1147 23.3076 9.70836 22.6687C8.96904 22.8345 8.19985 22.8109 7.47209 22.6001C6.74433 22.3894 6.08157 21.9982 5.54526 21.4631C5.00895 20.9279 4.61645 20.2659 4.40416 19.5386C4.19187 18.8113 4.16665 18.0421 4.33086 17.3025C3.68956 16.8966 3.16132 16.3352 2.79529 15.6704C2.42925 15.0055 2.2373 14.2589 2.2373 13.5C2.2373 12.7411 2.42925 11.9944 2.79529 11.3296C3.16132 10.6648 3.68956 10.1033 4.33086 9.69749Z" stroke="#602960" stroke-width="2.25" stroke-linecap="round" stroke-linejoin="round"/>
  <path d="M10.125 13.5L12.375 15.75L16.875 11.25" stroke="#602960" stroke-width="2.25" stroke-linecap="round" stroke-linejoin="round"/>
</svg>