<svg xmlns="http://www.w3.org/2000/svg" width="25" height="25" viewBox="0 0 25 25" fill="none">
  <path d="M15.6322 13.0195L17.1624 21.6311C17.1795 21.7325 17.1653 21.8367 17.1216 21.9298C17.0779 22.0229 17.0069 22.1005 16.9179 22.1521C16.829 22.2037 16.7264 22.2269 16.6239 22.2187C16.5213 22.2104 16.4238 22.171 16.3443 22.1058L12.7283 19.3918C12.5538 19.2614 12.3417 19.191 12.1238 19.191C11.9059 19.191 11.6939 19.2614 11.5193 19.3918L7.89727 22.1048C7.8178 22.1699 7.72037 22.2092 7.61799 22.2175C7.5156 22.2258 7.41313 22.2026 7.32423 22.1512C7.23534 22.0997 7.16425 22.0223 7.12046 21.9294C7.07667 21.8365 7.06225 21.7324 7.07913 21.6311L8.60834 13.0195" stroke="#CC1931" stroke-width="2.02009" stroke-linecap="round" stroke-linejoin="round"/>
  <path d="M12.1208 14.1406C15.4678 14.1406 18.1811 11.4274 18.1811 8.08036C18.1811 4.73337 15.4678 2.0201 12.1208 2.0201C8.77382 2.0201 6.06055 4.73337 6.06055 8.08036C6.06055 11.4274 8.77382 14.1406 12.1208 14.1406Z" stroke="#CC1931" stroke-width="2.02009" stroke-linecap="round" stroke-linejoin="round"/>
</svg>