<svg xmlns="http://www.w3.org/2000/svg" width="23" height="23" viewBox="0 0 23 23" fill="none">
  <path d="M3.60986 8.08128C3.47302 7.4649 3.49404 6.82395 3.67095 6.21785C3.84786 5.61175 4.17494 5.06014 4.62186 4.61414C5.06879 4.16815 5.62109 3.84223 6.22755 3.66659C6.83402 3.49095 7.47502 3.47128 8.09111 3.60941C8.43021 3.07906 8.89736 2.64262 9.4495 2.3403C10.0016 2.03798 10.621 1.87952 11.2505 1.87952C11.88 1.87952 12.4993 2.03798 13.0515 2.3403C13.6036 2.64262 14.0708 3.07906 14.4099 3.60941C15.0269 3.47068 15.669 3.49026 16.2764 3.66632C16.8839 3.84239 17.4369 4.16922 17.8841 4.61642C18.3313 5.06362 18.6581 5.61666 18.8342 6.22409C19.0103 6.83153 19.0298 7.47362 18.8911 8.09066C19.4215 8.42976 19.8579 8.89691 20.1602 9.44905C20.4625 10.0012 20.621 10.6205 20.621 11.25C20.621 11.8795 20.4625 12.4989 20.1602 13.051C19.8579 13.6032 19.4215 14.0703 18.8911 14.4094C19.0292 15.0255 19.0096 15.6665 18.8339 16.273C18.6583 16.8794 18.3324 17.4317 17.8864 17.8787C17.4404 18.3256 16.8888 18.6527 16.2827 18.8296C15.6766 19.0065 15.0356 19.0275 14.4192 18.8907C14.0806 19.423 13.6131 19.8613 13.06 20.165C12.5069 20.4687 11.8861 20.6279 11.2552 20.6279C10.6242 20.6279 10.0034 20.4687 9.45037 20.165C8.89729 19.8613 8.42977 19.423 8.09111 18.8907C7.47502 19.0288 6.83402 19.0091 6.22755 18.8335C5.62109 18.6578 5.06879 18.3319 4.62186 17.8859C4.17494 17.4399 3.84786 16.8883 3.67095 16.2822C3.49404 15.6761 3.47302 15.0352 3.60986 14.4188C3.07545 14.0806 2.63525 13.6127 2.33022 13.0587C2.02519 12.5046 1.86523 11.8825 1.86523 11.25C1.86523 10.6176 2.02519 9.99542 2.33022 9.44139C2.63525 8.88737 3.07545 8.41949 3.60986 8.08128Z" stroke="#F61E25" stroke-width="1.875" stroke-linecap="round" stroke-linejoin="round"/>
  <path d="M8.4375 11.25L10.3125 13.125L14.0625 9.375" stroke="#F61E25" stroke-width="1.875" stroke-linecap="round" stroke-linejoin="round"/>
</svg>