<svg xmlns="http://www.w3.org/2000/svg" width="23" height="23" fill="none" viewBox="0 0 23 23"><path stroke="#f61e25" stroke-linecap="round" stroke-linejoin="round" stroke-width="1.875" d="M3.61 8.081A3.75 3.75 0 0 1 8.09 3.61a3.75 3.75 0 0 1 6.319 0A3.75 3.75 0 0 1 18.89 8.09a3.75 3.75 0 0 1 0 6.319 3.75 3.75 0 0 1-4.472 4.481 3.75 3.75 0 0 1-6.328 0 3.75 3.75 0 0 1-4.481-4.472 3.75 3.75 0 0 1 0-6.338"/><path stroke="#f61e25" stroke-linecap="round" stroke-linejoin="round" stroke-width="1.875" d="m8.438 11.25 1.874 1.875 3.75-3.75"/></svg>