<svg xmlns="http://www.w3.org/2000/svg" width="23" height="23" viewBox="0 0 23 23" fill="none">
  <path d="M18.75 9.375C18.75 14.0559 13.5572 18.9309 11.8134 20.4366C11.651 20.5587 11.4532 20.6248 11.25 20.6248C11.0468 20.6248 10.849 20.5587 10.6866 20.4366C8.94281 18.9309 3.75 14.0559 3.75 9.375C3.75 7.38588 4.54018 5.47822 5.9467 4.0717C7.35322 2.66518 9.26088 1.875 11.25 1.875C13.2391 1.875 15.1468 2.66518 16.5533 4.0717C17.9598 5.47822 18.75 7.38588 18.75 9.375Z" stroke="white" stroke-width="1.875" stroke-linecap="round" stroke-linejoin="round"/>
  <path d="M11.25 12.1875C12.8033 12.1875 14.0625 10.9283 14.0625 9.375C14.0625 7.8217 12.8033 6.5625 11.25 6.5625C9.6967 6.5625 8.4375 7.8217 8.4375 9.375C8.4375 10.9283 9.6967 12.1875 11.25 12.1875Z" stroke="white" stroke-width="1.875" stroke-linecap="round" stroke-linejoin="round"/>
</svg>