<svg xmlns="http://www.w3.org/2000/svg" width="121" height="50" fill="none" viewBox="0 0 121 50"><path fill="#ed2124" d="M99.157 1.625c8.599.83 15.684 1.027 18.296 9.54l2.645 14.013-4.448 13.79c-3.184 7.275-7.723 8.775-16.592 9.525 0 0-23.565 1.514-38.664 1.507-15.4-.013-39.447-1.625-39.447-1.625-8.868-.783-13.401-2.296-16.559-9.572L0 24.987l2.316-14.164C4.974 2.31 12.44 2.303 21.039 1.507c0 0 24.08-1.533 39.487-1.507C75.177.02 99.15 1.612 99.15 1.612"/><path fill="#fff" d="M103.197 5.178c1.579.243 2.81.56 3.81 1.013 1.815.81 3.401 2.303 4.546 6.033l4.078 12.96-4.085 12.684c-2.599 5.836-5.829 7.033-13.882 7.711-.907.06-23.02 1.467-37.276 1.454-14.552-.013-37.111-1.507-38.039-1.566-8.052-.704-11.276-1.908-13.848-7.756L4.468 25.02l4.118-12.947c1.171-3.73 2.757-5.217 4.58-6.033 1-.448 2.236-.75 3.808-.987 1.638-.25 3.454-.408 5.46-.586C23.54 4.402 46 2.994 60.5 3.014c13.796.026 36.132 1.493 37.237 1.565 1.993.198 3.822.349 5.454.606m7.513 7.243c-1.105-3.586-2.572-4.868-4.105-5.553-.902-.401-2.033-.69-3.553-.934-1.612-.256-3.408-.401-5.375-.592-1.099-.079-23.401-1.546-37.17-1.566-14.37-.026-36.566 1.349-37.974 1.448-1.987.184-3.783.335-5.408.579-1.533.223-2.665.526-3.566.914-1.533.69-3.006 1.96-4.125 5.546L5.376 25.02l3.96 12.447c2.388 5.428 5.217 6.54 13.079 7.23.928.06 23.44 1.553 37.973 1.56 14.158.006 36.06-1.375 37.198-1.454 7.868-.658 10.697-1.764 13.111-7.178l4.02-12.447-4.007-12.763Z"/><path fill="#fff" d="M47.23 27.027c.52-.422 1.533-1.218 2.099-1.698 2.335-1.987 4.67-3.638 5.388-6.927.283-1.277-.744-4.356-1.967-5.987-.855.473-1.119.638-1.513.605-2.507-.19-1.224-2.362-1.033-4.23.066-.638.066-.665-.165-1.934.06.065 5.612 6.94 5.862 10.52l.112 1.354-.382 1.514c-.697 2.894-2.236 3.954-4.638 6.02-1.572 1.355-1.52 1.15-3.006 2.887-2.375 3.737 1.414 7.316 4.19 7.375 3.954.092 5.718-2.144 5.625-4.829l.04-17.578c3.342-1.198 2.066-3.138 3.947-3.362l-.033 14.19-.02 8.56c0 4.513-4.434 7.072-8.302 7.164-4.875.112-8.493-2.763-9.04-6.993-.348-2.757 1.066-5.382 3.191-6.941l-.355.303Zm32.993 5.23c-.737 0-1.401.342-1.77.855-.21.276-.322.612-.322.974-.013 1 .915 1.815 2.066 1.815.447 0 .868-.125 1.204-.329.54-.329.901-.868.901-1.486 0-1.007-.934-1.823-2.079-1.823m-4.605-2.592c1.033-3.362 4.546-5.829 8.724-5.829 4.98.007 9 3.533 8.986 7.875 0 1.48-.473 2.869-1.289 4.046h2.566l.026-6.651 2.428-1.671-2.421-1.717.026-11.665c3.335-1.197 2.066-3.144 3.947-3.374l-.026 13.802 1.342.954 1.388-.947.02-10.421c3.237-1.21 2.072-3.165 3.947-3.362-.019 0-.033 15.052-.033 15.052.02 0-2.355 1.691-2.355 1.691 0-.02 2.355 1.632 2.355 1.671l-.026 9.553 1.283 1.493h-5.217l.02-9.717-1.382-.974-1.349.968v9.717l-27.789-.04.026-9.71-1.388-.974-1.348.967-.02 9.717h-5.217s1.276-1.197 1.276-1.5l.02-9.54 2.434-1.67-2.421-1.724.02-11.664c3.342-1.21 2.059-3.145 3.954-3.375l-.027 13.809 1.342.954 1.382-.954.026-10.421c3.23-1.21 2.066-3.158 3.948-3.362-.027 0-.027 15.04-.027 15.04.013 0-2.355 1.697-2.355 1.697 0-.02 2.349 1.638 2.349 1.664l-.013 6.664h2.743c-.967-.69-1.592-1.736-1.585-2.92 0-2.093 1.947-3.783 4.342-3.783s4.335 1.697 4.335 3.796c-.013 1.177-.625 2.223-1.592 2.92h4.474a5.34 5.34 0 0 0 1.092-3.224c.013-3.308-3.066-5.992-6.855-5.999-2.625 0-4.908 1.27-6.066 3.151m-32.763 5.323c-.401.454-.842.868-1.316 1.283-6.724 5.842-17.592 5.828-24.29-.027-6.69-5.861-6.67-15.348.053-21.177 6.71-5.842 17.586-5.83 24.277.033.46.401.875.809 1.276 1.25-5.283-3.48-12.915-3.185-17.73 1-5.27 4.579-5.29 12.032-.027 16.638 4.777 4.177 12.283 4.566 17.573 1.138l.19-.125Z"/></svg>