<svg xmlns="http://www.w3.org/2000/svg" width="121" height="50" viewBox="0 0 121 50" fill="none">
<path d="M99.1572 1.62532C107.756 2.45427 114.841 2.65163 117.453 11.1647L120.098 25.1778L115.65 38.9672C112.466 46.2434 107.927 47.7434 99.0585 48.4934C99.0585 48.4934 75.4929 50.0066 60.3943 50C44.9931 49.9868 20.9472 48.375 20.9472 48.375C12.0789 47.5921 7.546 46.079 4.38813 38.8027L0 24.987L2.31577 10.8226C4.97365 2.30954 12.4407 2.30296 21.0393 1.50691C21.0393 1.50691 45.1181 -0.0259806 60.5259 0.00033499C75.1771 0.0200717 99.1506 1.61217 99.1506 1.61217" fill="#ED2124"/>
<path d="M103.197 5.17796C104.776 5.42137 106.007 5.73717 107.007 6.19111C108.822 7.00032 110.408 8.49374 111.553 12.224L115.631 25.1844L111.546 37.8685C108.947 43.704 105.717 44.9014 97.6645 45.579C96.7566 45.6382 74.6449 47.0461 60.3884 47.0329C45.8359 47.0198 23.2768 45.5264 22.3492 45.4672C14.2966 44.7632 11.073 43.5593 8.50064 37.7106L4.46777 25.0199L8.58616 12.0727C9.75721 8.34241 11.3427 6.85557 13.1651 6.03979C14.1651 5.59242 15.4019 5.28979 16.9743 5.05295C18.6124 4.80296 20.4282 4.64507 22.4347 4.46744C23.54 4.40165 46.0004 2.99377 60.5003 3.01351C74.2962 3.03983 96.6316 4.5069 97.7368 4.57927C99.7303 4.77664 101.559 4.92796 103.191 5.18454M110.704 12.4279C109.599 8.84242 108.132 7.55953 106.599 6.87532C105.697 6.47401 104.566 6.18453 103.046 5.94111C101.434 5.68453 99.6381 5.5398 97.6711 5.34901C96.5724 5.27007 74.2699 3.80297 60.5003 3.78323C46.1319 3.75692 23.9347 5.13191 22.5269 5.2306C20.54 5.41481 18.744 5.56612 17.119 5.80954C15.5861 6.03323 14.4545 6.33585 13.5532 6.724C12.0203 7.41479 10.5467 8.68451 9.42826 12.27L5.37566 25.0199L9.33616 37.4672C11.7243 42.8948 14.5532 44.0066 22.415 44.6974C23.3426 44.7566 45.8556 46.25 60.3884 46.2566C74.5462 46.2632 96.4474 44.8816 97.5855 44.8027C105.454 44.1448 108.283 43.0395 110.697 37.6251L114.717 25.1778L110.71 12.4147L110.704 12.4279Z" fill="white"/>
<path d="M47.2301 27.0265C47.7498 26.6055 48.7629 25.8094 49.3287 25.3291C51.6642 23.3423 53.9998 21.691 54.7169 18.4016C54.9997 17.1252 53.9734 14.0463 52.7498 12.4147C51.8945 12.8884 51.6313 13.0529 51.2366 13.02C48.73 12.8292 50.0129 10.6582 50.2037 8.78979C50.2695 8.15164 50.2695 8.12532 50.0392 6.85559C50.0985 6.92138 55.651 13.7963 55.901 17.3752L56.0129 18.7305L55.6313 20.2436C54.934 23.1384 53.3945 24.1976 50.9932 26.2633C49.4208 27.6186 49.4735 27.4146 47.9866 29.1515C45.6116 32.8883 49.4011 36.4672 52.1774 36.5264C56.1313 36.6185 57.8945 34.3817 57.8023 31.6975L57.8418 14.1187C61.1839 12.9213 59.9076 10.9806 61.7892 10.7569L61.7563 24.9476L61.7365 33.5067C61.7365 38.0198 57.3023 40.579 53.434 40.6711C48.559 40.783 44.9406 37.908 44.3946 33.6778C44.0459 30.9212 45.4603 28.2962 47.5853 26.737L47.2301 27.0397V27.0265ZM80.2232 32.2567C79.4864 32.2567 78.8219 32.5988 78.4535 33.112C78.243 33.3883 78.1312 33.7238 78.1312 34.0856C78.118 35.0856 79.0456 35.9014 80.1969 35.9014C80.6443 35.9014 81.0653 35.7764 81.4009 35.5725C81.9403 35.2435 82.3022 34.7041 82.3022 34.0856C82.3022 33.0791 81.368 32.2633 80.2232 32.2633M75.618 29.6712C76.6509 26.3094 80.164 23.8423 84.3416 23.8423C89.3219 23.8489 93.3416 27.3752 93.3284 31.7172C93.3284 33.1975 92.8547 34.5857 92.039 35.7633H94.6047L94.631 29.112L97.0586 27.441L94.6376 25.7239L94.6639 14.0595C97.9994 12.8621 96.7297 10.9148 98.6113 10.6845L98.585 24.487L99.9271 25.441L101.315 24.4936L101.335 14.0726C104.572 12.8621 103.407 10.9082 105.282 10.7108C105.263 10.7108 105.249 25.7633 105.249 25.7633C105.269 25.7633 102.894 27.4541 102.894 27.4541C102.894 27.4344 105.249 29.0857 105.249 29.1252L105.223 38.6777L106.506 40.1711H101.289L101.309 30.4541L99.9271 29.4804L98.5784 30.4475V40.1645L70.7891 40.1251L70.8154 30.4146L69.4273 29.4409L68.0786 30.408L68.0589 40.1251H62.8418C62.8418 40.1251 64.1181 38.9277 64.1181 38.6251L64.1378 29.0857L66.572 27.4147L64.151 25.691L64.1707 14.0266C67.5128 12.8161 66.2299 10.8819 68.1246 10.6516L68.0983 24.4607L69.4404 25.4147L70.822 24.4607L70.8483 14.0397C74.0785 12.8292 72.9141 10.8819 74.7957 10.6779C74.7693 10.6779 74.7693 25.7173 74.7693 25.7173C74.7825 25.7173 72.4141 27.4147 72.4141 27.4147C72.4141 27.3949 74.7628 29.0528 74.7628 29.0791L74.7496 35.7435H77.493C76.5259 35.0528 75.9009 34.0067 75.9075 32.8225C75.9075 30.7304 77.8548 29.0396 80.2496 29.0396C82.6443 29.0396 84.5851 30.737 84.5851 32.8357C84.5719 34.0133 83.9601 35.0593 82.993 35.7567H87.4666C88.1574 34.8422 88.5587 33.7238 88.5587 32.533C88.5719 29.2239 85.4929 26.5397 81.7035 26.5331C79.0785 26.5331 76.7956 27.8028 75.6377 29.6844M42.8748 35.0067C42.4735 35.4606 42.0327 35.8751 41.559 36.2896C34.8354 42.1316 23.9671 42.1185 17.2697 36.2633C10.579 30.4015 10.5987 20.9147 17.3224 15.0858C24.0328 9.24372 34.9078 9.25689 41.5985 15.1187C42.059 15.52 42.4735 15.9279 42.8748 16.3687C37.592 12.8884 29.9604 13.1845 25.1447 17.3687C19.875 21.9476 19.8553 29.4015 25.1184 34.0067C29.8947 38.1843 37.4012 38.5725 42.6906 35.1449L42.8814 35.0199L42.8748 35.0067Z" fill="white"/>
</svg>