<svg xmlns="http://www.w3.org/2000/svg" width="24" height="24" fill="none" viewBox="0 0 24 24"><path fill="#fff" d="M5.57 7.887c-.286-1.886 1.044-3.582 3.077-4.205a1.48 1.48 0 0 1 1.822.898l.651 1.74a1.5 1.5 0 0 1-.39 1.631L8.79 9.73a.75.75 0 0 0-.228.705l.018.078.048.196c.043.165.107.397.198.675.18.55.467 1.292.895 2.032.427.74.925 1.36 1.312 1.791q.303.336.632.648l.06.056a.75.75 0 0 0 .723.154l2.51-.79a1.5 1.5 0 0 1 1.608.478l1.187 1.44c.495.6.436 1.483-.133 2.013-1.556 1.45-3.695 1.747-5.183.55a19.1 19.1 0 0 1-4.536-5.293A18.7 18.7 0 0 1 5.57 7.887m4.564 2.646 1.61-1.476a3 3 0 0 0 .781-3.263l-.652-1.74a2.98 2.98 0 0 0-3.664-1.806c-2.525.774-4.551 3.036-4.122 5.863a20.2 20.2 0 0 0 2.518 7.108 20.6 20.6 0 0 0 4.892 5.708c2.231 1.792 5.212 1.18 7.146-.623a2.97 2.97 0 0 0 .268-4.063L17.723 14.8a3 3 0 0 0-3.217-.955l-2.082.655a9.38 9.38 0 0 1-1.404-1.833 9.4 9.4 0 0 1-.886-2.133"/></svg>