<svg xmlns="http://www.w3.org/2000/svg" width="27" height="27" fill="none" viewBox="0 0 27 27"><path stroke="#602960" stroke-linecap="round" stroke-linejoin="round" stroke-width="2.25" d="M4.33 9.697a4.5 4.5 0 0 1 5.378-5.366 4.5 4.5 0 0 1 7.583 0 4.5 4.5 0 0 1 5.377 5.378 4.5 4.5 0 0 1 0 7.582 4.5 4.5 0 0 1-5.366 5.378 4.5 4.5 0 0 1-7.594 0 4.5 4.5 0 0 1-5.378-5.366 4.5 4.5 0 0 1 0-7.605"/><path stroke="#602960" stroke-linecap="round" stroke-linejoin="round" stroke-width="2.25" d="m10.125 13.5 2.25 2.25 4.5-4.5"/></svg>