<svg xmlns="http://www.w3.org/2000/svg" width="27" height="27" fill="none" viewBox="0 0 27 27"><path stroke="#602960" stroke-linecap="round" stroke-linejoin="round" stroke-width="2.25" d="M13.5 22.5A9 9 0 1 0 13.499841891545529 4.5 9 9 0 0 0 13.5 22.5"/><path stroke="#602960" stroke-linecap="round" stroke-linejoin="round" stroke-width="2.25" d="M13.5 15.75a2.25 2.25 0 1 0-.0002858953762032712-4.5A2.25 2.25 0 0 0 13.5 15.75M13.5 2.25V4.5M13.5 24.75V22.5M19.125 23.243 18 21.296M12.375 11.554l-4.5-7.797M23.242 19.125 21.296 18M3.758 7.875 5.704 9M15.75 13.5h9M2.25 13.5H4.5M23.242 7.875 21.296 9M3.758 19.125 5.704 18M19.125 3.757 18 5.704M12.375 15.446l-4.5 7.797"/></svg>