<svg xmlns="http://www.w3.org/2000/svg" width="27" height="27" fill="none" viewBox="0 0 27 27"><path stroke="#602960" stroke-linecap="round" stroke-linejoin="round" stroke-width="2.25" d="M11.18 17.438a2.25 2.25 0 0 0-1.617-1.617L2.66 14.04A.563.563 0 0 1 2.66 12.96l6.902-1.781a2.25 2.25 0 0 0 1.617-1.615l1.78-6.902a.563.563 0 0 1 1.083 0l1.778 6.902a2.25 2.25 0 0 0 1.617 1.617l6.902 1.778a.563.563 0 0 1 0 1.084l-6.902 1.779a2.25 2.25 0 0 0-1.617 1.617l-1.78 6.901a.563.563 0 0 1-1.083 0ZM22.5 3.375v4.5M24.75 5.625h-4.5M4.5 19.125v2.25M5.625 20.25h-2.25"/></svg>