<svg xmlns="http://www.w3.org/2000/svg" width="27" height="27" viewBox="0 0 27 27" fill="none">
  <path d="M11.1794 17.4375C11.0789 17.0482 10.876 16.6929 10.5917 16.4086C10.3074 16.1243 9.95207 15.9213 9.56274 15.8209L2.66086 14.0412C2.54311 14.0077 2.43947 13.9368 2.36568 13.8392C2.29188 13.7415 2.25195 13.6224 2.25195 13.5C2.25195 13.3776 2.29188 13.2586 2.36568 13.1609C2.43947 13.0633 2.54311 12.9923 2.66086 12.9589L9.56274 11.178C9.95193 11.0777 10.3071 10.8749 10.5914 10.5908C10.8757 10.3067 11.0787 9.95166 11.1794 9.56254L12.9591 2.66066C12.9922 2.54244 13.063 2.4383 13.1608 2.36411C13.2587 2.28991 13.378 2.24976 13.5008 2.24976C13.6236 2.24976 13.7429 2.28991 13.8408 2.36411C13.9386 2.4383 14.0094 2.54244 14.0425 2.66066L15.8211 9.56254C15.9216 9.95187 16.1245 10.3072 16.4088 10.5915C16.6931 10.8758 17.0484 11.0787 17.4377 11.1792L24.3396 12.9578C24.4583 12.9905 24.563 13.0613 24.6376 13.1592C24.7121 13.2572 24.7525 13.3769 24.7525 13.5C24.7525 13.6232 24.7121 13.7429 24.6376 13.8408C24.563 13.9388 24.4583 14.0095 24.3396 14.0423L17.4377 15.8209C17.0484 15.9213 16.6931 16.1243 16.4088 16.4086C16.1245 16.6929 15.9216 17.0482 15.8211 17.4375L14.0414 24.3394C14.0083 24.4576 13.9374 24.5618 13.8396 24.636C13.7418 24.7102 13.6224 24.7503 13.4997 24.7503C13.3769 24.7503 13.2575 24.7102 13.1597 24.636C13.0619 24.5618 12.9911 24.4576 12.958 24.3394L11.1794 17.4375Z" stroke="#602960" stroke-width="2.25" stroke-linecap="round" stroke-linejoin="round"/>
  <path d="M22.5 3.375V7.875" stroke="#602960" stroke-width="2.25" stroke-linecap="round" stroke-linejoin="round"/>
  <path d="M24.75 5.625H20.25" stroke="#602960" stroke-width="2.25" stroke-linecap="round" stroke-linejoin="round"/>
  <path d="M4.5 19.125V21.375" stroke="#602960" stroke-width="2.25" stroke-linecap="round" stroke-linejoin="round"/>
  <path d="M5.625 20.25H3.375" stroke="#602960" stroke-width="2.25" stroke-linecap="round" stroke-linejoin="round"/>
</svg>